<?xml version="1.0" encoding="utf-8"?>
<!-- Generator: Adobe Illustrator 24.1.2, SVG Export Plug-In . SVG Version: 6.00 Build 0)  -->
<svg version="1.1" id="Layer_1" xmlns="http://www.w3.org/2000/svg" xmlns:xlink="http://www.w3.org/1999/xlink" x="0px" y="0px"
	 viewBox="0 0 50 50" style="enable-background:new 0 0 50 50;" xml:space="preserve">
<style type="text/css">
	.st0{opacity:0.2;}
	.st1{fill:#FFFFFF;stroke:#FCFCFC;stroke-miterlimit:10;}
</style>
<g class="st0">
	<circle cx="25" cy="25" r="24"/>
	<path d="M25,0.5v1c12.96,0,23.5,10.54,23.5,23.5c0,6.28-2.44,12.18-6.88,16.62C37.18,46.06,31.28,48.5,25,48.5
		C12.04,48.5,1.5,37.96,1.5,25c0-6.28,2.44-12.18,6.88-16.62C12.82,3.94,18.72,1.5,25,1.5L25,0.5 M25,0.5
		C11.47,0.5,0.5,11.47,0.5,25S11.47,49.5,25,49.5S49.5,38.53,49.5,25S38.53,0.5,25,0.5L25,0.5z"/>
</g>
<polygon class="st1" points="19.5,46 37.5,24 20.5,4 16.5,8 31.5,24 16.5,43 "/>
</svg>
