<?xml version="1.0" encoding="utf-8"?>
<!-- Generator: Adobe Illustrator 24.1.2, SVG Export Plug-In . SVG Version: 6.00 Build 0)  -->
<svg version="1.1" id="Layer_1" xmlns="http://www.w3.org/2000/svg" xmlns:xlink="http://www.w3.org/1999/xlink" x="0px" y="0px"
	 viewBox="0 0 80 40" style="enable-background:new 0 0 80 40;" xml:space="preserve">
<style type="text/css">
	.st0{fill:#FCA311;}
	.st1{fill:none;stroke:#FCA311;stroke-width:1.8;stroke-miterlimit:10;}
</style>
<g>
	<path class="st0" d="M40.31,19.91c4.76,0,8.64,3.87,8.64,8.64s-3.87,8.64-8.64,8.64s-8.64-3.87-8.64-8.64S35.55,19.91,40.31,19.91
		 M40.31,17.41c-6.16,0-11.14,4.99-11.14,11.14S34.16,39.7,40.31,39.7s11.14-4.99,11.14-11.14S46.47,17.41,40.31,17.41L40.31,17.41z
		"/>
</g>
<path class="st1" d="M38.22,15.32c2.79,2.31-4.99-4.17-8.36-6.97V1.39h20.9v6.97c0,0-11.14,8.36-8.36,6.97"/>
<g>
	<path class="st0" d="M40.31,14.62c-1.53,0-2.79,0.75-2.79,1.67c0,0.92,1.25,1.67,2.79,1.67c1.53,0,2.79-0.75,2.79-1.67
		C43.1,15.37,41.85,14.62,40.31,14.62L40.31,14.62z"/>
</g>
<line class="st1" x1="35.44" y1="1.39" x2="35.44" y2="12.53"/>
<line class="st1" x1="45.19" y1="1.39" x2="45.19" y2="12.53"/>
<g>
	<path class="st0" d="M40.4,34.54c-0.1,0-0.18-0.03-0.25-0.1c-0.07-0.07-0.1-0.14-0.1-0.24v-10.6l0.17,0.1l-2.61,1.56
		c-0.03,0.03-0.08,0.03-0.14,0.03c-0.1,0-0.18-0.04-0.26-0.13c-0.08-0.08-0.11-0.17-0.11-0.24c0-0.1,0.06-0.2,0.18-0.28l2.93-1.76
		c0.08-0.06,0.17-0.07,0.28-0.06c0.08,0.01,0.14,0.04,0.18,0.11s0.07,0.14,0.07,0.22v11.03c0,0.08-0.03,0.17-0.1,0.24
		C40.58,34.51,40.5,34.54,40.4,34.54z"/>
</g>
</svg>
