<?xml version="1.0" encoding="utf-8"?>
<!-- Generator: Adobe Illustrator 24.1.2, SVG Export Plug-In . SVG Version: 6.00 Build 0)  -->
<svg version="1.1" id="Layer_1" xmlns="http://www.w3.org/2000/svg" xmlns:xlink="http://www.w3.org/1999/xlink" x="0px" y="0px"
	 viewBox="0 0 50 50" style="enable-background:new 0 0 50 50;" xml:space="preserve">
<style type="text/css">
	.st0{fill:#FFFFFF;stroke:#FFFFFF;stroke-miterlimit:10;}
</style>
<g>
	<circle cx="25" cy="25" r="20.5"/>
	<path d="M25,5c11.03,0,20,8.97,20,20s-8.97,20-20,20S5,36.03,5,25S13.97,5,25,5 M25,4C13.4,4,4,13.4,4,25s9.4,21,21,21
		s21-9.4,21-21S36.6,4,25,4L25,4z"/>
</g>
<polygon class="st0" points="10.5,28.5 22.5,39.5 40.5,15.5 36.5,12.5 21.5,31.5 15.5,26.5 14.5,25.5 "/>
</svg>
