<?xml version="1.0" encoding="utf-8"?>
<!-- Generator: Adobe Illustrator 24.1.2, SVG Export Plug-In . SVG Version: 6.00 Build 0)  -->
<svg version="1.1" id="Layer_1" xmlns="http://www.w3.org/2000/svg" xmlns:xlink="http://www.w3.org/1999/xlink" x="0px" y="0px"
	 viewBox="0 0 30 30" style="enable-background:new 0 0 30 30;" xml:space="preserve">
<style type="text/css">
	.st0{stroke:#000000;stroke-miterlimit:10;}
</style>
<g>
	<path class="st0" d="M27,22.51c-0.08,0-0.16,0.02-0.24,0.03l-0.78-1.71H9.53l-0.78,1.71c-0.08-0.01-0.16-0.03-0.24-0.03
		c-1.1,0-2,1-2,2.24C6.5,26,7.4,27,8.5,27s2-1,2-2.24c0-0.82-0.39-1.52-0.97-1.92v-0.89h15.42l0.9,0.98C25.33,23.34,25,24,25,24.76
		C25,26,25.9,27,27,27s2-1,2-2.24C29,23.52,28.1,22.51,27,22.51z"/>
	<polygon class="st0" points="10.5,19.71 10.07,18.59 26,18.59 28,7.37 6,7.37 9,15.78 4.5,4 0.5,4 0.5,5.12 3.5,5.12 9.5,19.71 	
		"/>
</g>
</svg>
