<?xml version="1.0" encoding="utf-8"?>
<!-- Generator: Adobe Illustrator 24.1.2, SVG Export Plug-In . SVG Version: 6.00 Build 0)  -->
<svg version="1.1" id="Layer_1" xmlns="http://www.w3.org/2000/svg" xmlns:xlink="http://www.w3.org/1999/xlink" x="0px" y="0px"
	 viewBox="0 0 30 30" style="enable-background:new 0 0 30 30;" xml:space="preserve">
<g>
	<circle cx="7.5" cy="7.5" r="6"/>
	<path d="M7.5,2C10.53,2,13,4.47,13,7.5S10.53,13,7.5,13S2,10.53,2,7.5S4.47,2,7.5,2 M7.5,1C3.91,1,1,3.91,1,7.5S3.91,14,7.5,14
		S14,11.09,14,7.5S11.09,1,7.5,1L7.5,1z"/>
</g>
<g>
	<rect x="17.83" y="8.99" transform="matrix(0.7238 -0.69 0.69 0.7238 -8.2676 18.3966)" width="2.04" height="21.07"/>
	<path d="M12.29,11.9l13.85,14.53l-0.75,0.72L11.54,12.62L12.29,11.9 M12.33,10.49l-2.2,2.1l15.24,15.98l2.2-2.1L12.33,10.49
		L12.33,10.49z"/>
</g>
</svg>
