<?xml version="1.0" encoding="utf-8"?>
<!-- Generator: Adobe Illustrator 24.1.2, SVG Export Plug-In . SVG Version: 6.00 Build 0)  -->
<svg version="1.1" id="Layer_1" xmlns="http://www.w3.org/2000/svg" xmlns:xlink="http://www.w3.org/1999/xlink" x="0px" y="0px"
	 viewBox="0 0 77 56" style="enable-background:new 0 0 77 56;" xml:space="preserve">
<style type="text/css">
	.st0{fill:#FCA311;}
	.st1{fill:none;stroke:#FFFFFF;stroke-width:2;stroke-miterlimit:10;}
	.st2{fill-rule:evenodd;clip-rule:evenodd;fill:#FFFFFF;}
	.st3{fill:#FFFFFF;}
	.st4{fill:none;}
	.st5{font-family:'Montserrat-Regular';}
	.st6{font-size:16px;}
</style>
<g>
	<rect x="2.5" y="2.5" class="st0" width="72" height="51"/>
	<path class="st0" d="M74,3v50H3V3H74 M75,2H2v52h73V2L75,2z"/>
</g>
<g>
	<line class="st1" x1="57.5" y1="28.5" x2="67.5" y2="37.5"/>
	<line class="st2" x1="57.5" y1="28.5" x2="67.5" y2="37.5"/>
</g>
<line class="st1" x1="68" y1="38" x2="59" y2="47"/>
<g>
	<g>
		<path class="st3" d="M67.43,39.43c1.93,0,1.93-3,0-3C65.5,36.43,65.5,39.43,67.43,39.43L67.43,39.43z"/>
	</g>
</g>
<line class="st1" x1="67.5" y1="38" x2="9.5" y2="38"/>
<rect x="15.05" y="8.87" class="st4" width="48.95" height="14.13"/>
<text transform="matrix(1 0 0 1 15.0538 20.7373)" class="st3 st5 st6">Kassa</text>
</svg>
