<?xml version="1.0" encoding="utf-8"?>
<!-- Generator: Adobe Illustrator 24.1.2, SVG Export Plug-In . SVG Version: 6.00 Build 0)  -->
<svg version="1.1" id="Layer_1" xmlns="http://www.w3.org/2000/svg" xmlns:xlink="http://www.w3.org/1999/xlink" x="0px" y="0px"
	 viewBox="0 0 80 30" style="enable-background:new 0 0 80 30;" xml:space="preserve">
<style type="text/css">
	.st0{fill:#FCA311;stroke:#FCA311;stroke-width:1.8;stroke-miterlimit:10;}
</style>
<path class="st0" d="M53.38,16.51c-0.18,1.78-0.67,3.43-1.53,4.94c-1.11,1.93-2.62,3.44-4.55,4.54c-1.93,1.1-4.07,1.65-6.43,1.65
	c-2.36,0-4.5-0.55-6.43-1.65c-1.93-1.1-3.44-2.61-4.55-4.54c-0.97-1.68-1.48-3.55-1.6-5.57c-0.4-0.4-0.64-0.38-0.74,0.06
	c0.13,2.15,0.68,4.12,1.69,5.89c1.17,2.03,2.77,3.63,4.81,4.79c2.04,1.16,4.31,1.74,6.82,1.74c2.51,0,4.78-0.58,6.82-1.74
	c2.04-1.16,3.64-2.76,4.81-4.79c0.9-1.57,1.43-3.29,1.64-5.15C53.88,16.63,53.63,16.58,53.38,16.51z"/>
<path class="st0" d="M52.5,8.17c-1.17-2.03-2.77-3.63-4.81-4.79c-2.04-1.16-4.31-1.74-6.82-1.74c-2.51,0-4.78,0.58-6.82,1.74
	c-2.04,1.16-3.64,2.76-4.81,4.79c-0.72,1.25-1.18,2.62-1.44,4.07c0.26-0.07,0.53-0.14,0.79-0.18c0.26-1.24,0.68-2.42,1.31-3.51
	c1.1-1.93,2.62-3.44,4.55-4.54c1.92-1.1,4.07-1.65,6.43-1.65c2.36,0,4.5,0.55,6.43,1.65c1.92,1.1,3.44,2.61,4.55,4.54
	c0.74,1.3,0.97,2.77,1.45,4.22c0.15,0.45,0.53,1.45,0.73-0.14C53.77,11.03,53.28,9.54,52.5,8.17z"/>
<g>
	<path class="st0" d="M56.58,9.33l-2.66,3.99l-0.21,0.04l-3.92-2.72l0.24-0.05l3.76,2.61l2.55-3.83L56.58,9.33z"/>
</g>
<g>
	<path class="st0" d="M23.42,19.84l4.29-4.45l0.29-0.01l4.69,4l-0.33,0.02l-4.5-3.85l-4.11,4.27L23.42,19.84z"/>
</g>
</svg>
