<?xml version="1.0" encoding="utf-8"?>
<!-- Generator: Adobe Illustrator 24.1.2, SVG Export Plug-In . SVG Version: 6.00 Build 0)  -->
<svg version="1.1" id="Layer_1" xmlns="http://www.w3.org/2000/svg" xmlns:xlink="http://www.w3.org/1999/xlink" x="0px" y="0px"
	 viewBox="0 0 578 176" style="enable-background:new 0 0 578 176;" xml:space="preserve">
<style type="text/css">
	.st0{fill:#FFFFFF;}
	.st1{fill:#4A4A49;}
	.st2{fill-rule:evenodd;clip-rule:evenodd;fill:url(#SVGID_1_);}
	.st3{fill-rule:evenodd;clip-rule:evenodd;fill:url(#SVGID_2_);}
	.st4{fill-rule:evenodd;clip-rule:evenodd;fill:url(#SVGID_3_);}
	.st5{fill-rule:evenodd;clip-rule:evenodd;fill:url(#SVGID_4_);}
</style>
<path class="st0" d="M559,136H227c-6.6,0-12-5.4-12-12V44c0-6.6,5.4-12,12-12h332c6.6,0,12,5.4,12,12v80
	C571,130.6,565.6,136,559,136z"/>
<g>
	<path class="st1" d="M542.97,51.34c0-1.91,0.37-3.7,1.1-5.36s1.73-3.12,2.98-4.37c1.26-1.24,2.73-2.22,4.42-2.94
		c1.69-0.72,3.5-1.07,5.44-1.07c1.96,0,3.8,0.36,5.52,1.07c1.71,0.72,3.21,1.69,4.48,2.94c1.27,1.24,2.27,2.7,3,4.37
		c0.73,1.67,1.1,3.46,1.1,5.36c0,1.91-0.37,3.7-1.1,5.36c-0.73,1.67-1.73,3.12-3,4.37s-2.76,2.22-4.48,2.94
		c-1.71,0.72-3.55,1.07-5.52,1.07c-1.94,0-3.75-0.36-5.44-1.07c-1.69-0.72-3.16-1.69-4.42-2.94c-1.26-1.24-2.25-2.7-2.98-4.37
		S542.97,53.25,542.97,51.34z M545.84,51.34c0,1.58,0.28,3.05,0.84,4.4c0.56,1.36,1.34,2.53,2.34,3.54c0.99,1,2.17,1.79,3.51,2.37
		c1.35,0.58,2.81,0.87,4.38,0.87c1.6,0,3.08-0.29,4.44-0.87c1.36-0.58,2.55-1.37,3.55-2.37s1.8-2.18,2.38-3.54
		c0.58-1.36,0.86-2.82,0.86-4.4c0-1.58-0.29-3.05-0.86-4.4c-0.58-1.36-1.37-2.53-2.38-3.54s-2.19-1.79-3.55-2.37
		c-1.36-0.58-2.84-0.87-4.44-0.87c-1.57,0-3.03,0.29-4.38,0.87c-1.35,0.58-2.52,1.37-3.51,2.37c-0.99,1-1.77,2.18-2.34,3.54
		C546.12,48.29,545.84,49.76,545.84,51.34z M552.12,45.43c0-0.83,0.43-1.24,1.3-1.24h4.44c1.41,0,2.54,0.39,3.38,1.17
		c0.84,0.78,1.26,1.83,1.26,3.16c0,0.55-0.09,1.04-0.26,1.47s-0.39,0.8-0.65,1.11c-0.26,0.31-0.55,0.57-0.86,0.77
		c-0.31,0.2-0.63,0.34-0.94,0.41v0.08c0.03,0.03,0.07,0.08,0.12,0.15c0.05,0.05,0.1,0.13,0.16,0.24c0.05,0.11,0.13,0.24,0.24,0.4
		l2.04,3.8c0.24,0.43,0.29,0.77,0.16,1.04c-0.13,0.26-0.42,0.4-0.86,0.4h-0.47c-0.73,0-1.24-0.3-1.53-0.9l-2.28-4.59h-2.43v4.29
		c0,0.8-0.41,1.2-1.22,1.2h-0.35c-0.81,0-1.22-0.4-1.22-1.2L552.12,45.43z M557.26,50.93c0.76,0,1.35-0.21,1.77-0.64
		c0.42-0.43,0.63-1.02,0.63-1.77c0-0.73-0.21-1.29-0.63-1.69c-0.42-0.4-0.99-0.6-1.73-0.6h-2.39v4.71H557.26z M442.83,59.93
		c4.44,0,8.2,0.54,11.29,1.63c3.09,1.08,5.5,2.09,7.24,3c1.48,0.75,2.35,1.75,2.61,3c0.26,1.25,0.04,2.59-0.65,4.01l-1.31,2.25
		c-0.78,1.5-1.78,2.38-3,2.63c-1.22,0.25-2.65,0.04-4.31-0.63c-1.48-0.67-3.26-1.36-5.35-2.07c-2.09-0.71-4.53-1.06-7.31-1.06
		c-2.87,0-5.09,0.54-6.66,1.63c-1.57,1.08-2.35,2.63-2.35,4.63c0,1.75,0.8,3.17,2.41,4.26c1.61,1.08,3.65,2.04,6.13,2.88
		c2.48,0.83,5.13,1.73,7.96,2.69s5.48,2.19,7.96,3.69c2.48,1.5,4.53,3.42,6.14,5.76c1.61,2.34,2.41,5.3,2.41,8.89
		c0,2.84-0.59,5.44-1.76,7.82c-1.17,2.38-2.87,4.44-5.09,6.2s-4.89,3.13-8.03,4.13s-6.61,1.5-10.44,1.5c-5.4,0-9.94-0.75-13.64-2.25
		c-3.7-1.5-6.55-2.92-8.55-4.26c-1.48-0.83-2.31-1.88-2.48-3.13c-0.17-1.25,0.22-2.59,1.17-4.01l1.57-2.25
		c0.96-1.34,2.02-2.09,3.2-2.25c1.17-0.17,2.59,0.17,4.24,1c1.57,0.83,3.59,1.77,6.07,2.82c2.48,1.04,5.42,1.56,8.81,1.56
		c2.87,0,5.13-0.58,6.79-1.75c1.65-1.17,2.48-2.75,2.48-4.76c0-1.75-0.8-3.15-2.41-4.19c-1.61-1.04-3.65-2-6.14-2.88
		c-2.48-0.88-5.13-1.81-7.96-2.82s-5.48-2.25-7.96-3.76c-2.48-1.5-4.53-3.42-6.13-5.76c-1.61-2.34-2.41-5.34-2.41-9.01
		c0-3.09,0.67-5.84,2.02-8.26s3.18-4.42,5.48-6.01c2.31-1.59,5-2.8,8.09-3.63C436.06,60.34,439.35,59.93,442.83,59.93L442.83,59.93z
		 M248.8,59.93c4.44,0,8.2,0.54,11.29,1.63c3.09,1.08,5.5,2.09,7.24,3c1.48,0.75,2.35,1.75,2.61,3s0.04,2.59-0.65,4.01l-1.31,2.25
		c-0.78,1.5-1.78,2.38-3,2.63s-2.65,0.04-4.31-0.63c-1.48-0.67-3.26-1.36-5.35-2.07c-2.09-0.71-4.53-1.06-7.31-1.06
		c-2.87,0-5.09,0.54-6.66,1.63c-1.57,1.08-2.35,2.63-2.35,4.63c0,1.75,0.8,3.17,2.41,4.26c1.61,1.08,3.65,2.04,6.13,2.88
		c2.48,0.83,5.13,1.73,7.96,2.69c2.83,0.96,5.48,2.19,7.96,3.69c2.48,1.5,4.53,3.42,6.14,5.76c1.61,2.34,2.41,5.3,2.41,8.89
		c0,2.84-0.59,5.44-1.76,7.82c-1.17,2.38-2.87,4.44-5.09,6.2s-4.89,3.13-8.03,4.13s-6.61,1.5-10.44,1.5c-5.4,0-9.94-0.75-13.64-2.25
		c-3.7-1.5-6.55-2.92-8.55-4.26c-1.48-0.83-2.31-1.88-2.48-3.13c-0.17-1.25,0.22-2.59,1.17-4.01l1.57-2.25
		c0.96-1.34,2.02-2.09,3.2-2.25s2.59,0.17,4.24,1c1.57,0.83,3.59,1.77,6.07,2.82c2.48,1.04,5.42,1.56,8.81,1.56
		c2.87,0,5.13-0.58,6.79-1.75c1.65-1.17,2.48-2.75,2.48-4.76c0-1.75-0.8-3.15-2.41-4.19c-1.61-1.04-3.65-2-6.13-2.88
		c-2.48-0.88-5.13-1.81-7.96-2.82s-5.48-2.25-7.96-3.76c-2.48-1.5-4.53-3.42-6.13-5.76c-1.61-2.34-2.41-5.34-2.41-9.01
		c0-3.09,0.67-5.84,2.02-8.26s3.18-4.42,5.48-6.01c2.31-1.59,5-2.8,8.09-3.63C242.03,60.34,245.32,59.93,248.8,59.93L248.8,59.93z
		 M486.81,36.39c3.65,0,5.48,1.75,5.48,5.26v25.79c0,0.83-0.02,1.56-0.07,2.19c-0.04,0.63-0.11,1.19-0.2,1.69
		c-0.09,0.58-0.13,1.08-0.13,1.5h0.26c0.78-1.5,1.89-3.02,3.33-4.57c1.44-1.54,3.13-2.94,5.09-4.19s4.18-2.25,6.66-3
		c2.48-0.75,5.16-1.13,8.03-1.13c7.4,0,13.12,1.92,17.16,5.76c4.05,3.84,6.07,10.01,6.07,18.53v35.8c0,3.5-1.83,5.26-5.48,5.26
		h-5.61c-3.65,0-5.48-1.75-5.48-5.26V87.46c0-3.92-0.7-7.07-2.09-9.45s-4.18-3.57-8.35-3.57c-2.87,0-5.5,0.54-7.9,1.63
		c-2.39,1.08-4.42,2.57-6.07,4.44c-1.65,1.88-2.94,4.11-3.85,6.7c-0.91,2.59-1.37,5.38-1.37,8.39v24.41c0,3.5-1.83,5.26-5.48,5.26
		h-5.61c-3.65,0-5.48-1.75-5.48-5.26V41.65c0-3.5,1.83-5.26,5.48-5.26H486.81z M400.08,61.43c3.57,0,5.35,1.75,5.35,5.26v53.32
		c0,3.5-1.78,5.26-5.35,5.26h-5.74c-3.57,0-5.35-1.75-5.35-5.26V66.69c0-3.5,1.78-5.26,5.35-5.26H400.08z M289.33,61.43
		c3.31,0,5.26,1.54,5.87,4.63l10.7,37.3c0.17,0.92,0.33,1.75,0.46,2.5c0.13,0.75,0.28,1.46,0.46,2.13c0.17,0.75,0.3,1.46,0.39,2.13
		h0.26c0.09-0.67,0.22-1.38,0.39-2.13c0.17-0.67,0.33-1.38,0.46-2.13c0.13-0.75,0.33-1.59,0.59-2.5l11.23-37.3
		c0.61-3,2.61-4.51,6-4.51h4.96c3.22,0,5.22,1.5,6,4.51l11.1,37.3c0.26,0.92,0.46,1.75,0.59,2.5c0.13,0.75,0.28,1.46,0.46,2.13
		c0.17,0.75,0.3,1.46,0.39,2.13h0.26c0.09-0.67,0.22-1.38,0.39-2.13c0.17-0.67,0.33-1.38,0.46-2.13c0.13-0.75,0.33-1.59,0.59-2.5
		l10.57-37.3c0.78-3.09,2.78-4.63,6-4.63h6c2,0,3.39,0.54,4.18,1.63c0.78,1.08,0.91,2.5,0.39,4.26l-17.1,53.57
		c-0.87,2.92-2.92,4.38-6.13,4.38h-8.75c-3.31,0-5.35-1.5-6.13-4.51l-10.05-31.92c-0.26-0.83-0.48-1.67-0.65-2.5
		c-0.17-0.83-0.35-1.59-0.52-2.25c-0.17-0.75-0.3-1.46-0.39-2.13h-0.26c-0.17,0.67-0.35,1.38-0.52,2.13
		c-0.17,0.67-0.35,1.42-0.52,2.25c-0.17,0.83-0.39,1.67-0.65,2.5l-10.05,31.92c-0.78,3-2.78,4.51-6,4.51h-9.01
		c-3.13,0-5.13-1.46-6-4.38l-17.23-53.57c-0.52-1.75-0.37-3.17,0.46-4.26c0.83-1.08,2.2-1.63,4.11-1.63L289.33,61.43z"/>
	<g transform="translate(50.005869 20.581194)">
		
			<linearGradient id="SVGID_1_" gradientUnits="userSpaceOnUse" x1="197.5572" y1="82.1919" x2="197.3609" y2="82.6745" gradientTransform="matrix(125.8213 0 0 -155.2459 -24788.6934 12868.1826)">
			<stop  offset="0" style="stop-color:#EF2131"/>
			<stop  offset="1" style="stop-color:#FECF2C"/>
		</linearGradient>
		<path class="st2" d="M3.2,141.99c34.66,15.88,77.44,8.02,103.29-21.47c30.63-34.95,25.87-87.06-10.63-116.38L71.59,31.83
			c28.52,22.91,32.23,63.62,8.3,90.92C60.81,144.52,29.4,151.79,3.2,141.99"/>
		
			<linearGradient id="SVGID_2_" gradientUnits="userSpaceOnUse" x1="197.6664" y1="82.857" x2="197.1947" y2="81.962" gradientTransform="matrix(114.7486 0 0 -125.7808 -22585.293 10469.165)">
			<stop  offset="0" style="stop-color:#FBC52C"/>
			<stop  offset="0.2639" style="stop-color:#F87130"/>
			<stop  offset="0.5608" style="stop-color:#EF52E2"/>
			<stop  offset="1" style="stop-color:#661EEC"/>
		</linearGradient>
		<path class="st3" d="M3.2,141.99c34.66,15.88,77.44,8.02,103.29-21.47c3.17-3.61,5.95-7.41,8.36-11.34
			c4.08-24.29-4.89-49.96-26.01-66.92c-5.36-4.31-11.17-7.78-17.25-10.43c28.51,22.91,32.23,63.61,8.3,90.92
			C60.81,144.52,29.4,151.79,3.2,141.99"/>
	</g>
	
		<linearGradient id="SVGID_3_" gradientUnits="userSpaceOnUse" x1="247.524" y1="103.1547" x2="247.7117" y2="102.6837" gradientTransform="matrix(125.8211 0 0 -155.246 -31080.459 16063.334)">
		<stop  offset="0" style="stop-color:#78F6D8"/>
		<stop  offset="0.2657" style="stop-color:#77D1F6"/>
		<stop  offset="0.5545" style="stop-color:#70A4F3"/>
		<stop  offset="1" style="stop-color:#661EEC"/>
	</linearGradient>
	<path class="st4" d="M127.61,13.43C92.95-2.45,50.17,5.41,24.32,34.9C-6.31,69.85-1.55,121.95,34.95,151.28l24.27-27.69
		c-28.52-22.91-32.23-63.62-8.3-90.92C70,10.9,101.41,3.63,127.61,13.43"/>
	
		<linearGradient id="SVGID_4_" gradientUnits="userSpaceOnUse" x1="247.0348" y1="102.7251" x2="247.5026" y2="103.6167" gradientTransform="matrix(114.7485 0 0 -125.7806 -28312.2969 13028.4063)">
		<stop  offset="0" style="stop-color:#536EED"/>
		<stop  offset="0.2467" style="stop-color:#54C3EC"/>
		<stop  offset="0.5642" style="stop-color:#64D769"/>
		<stop  offset="1" style="stop-color:#FECF2C"/>
	</linearGradient>
	<path class="st5" d="M127.61,13.43C92.95-2.45,50.17,5.41,24.32,34.9c-3.17,3.61-5.95,7.41-8.36,11.34
		c-4.08,24.29,4.89,49.96,26.01,66.92c5.36,4.31,11.17,7.78,17.25,10.43c-28.51-22.91-32.23-63.61-8.3-90.92
		C70,10.9,101.41,3.63,127.61,13.43"/>
</g>
</svg>
